<?xml version="1.0" standalone="no"?>
<!DOCTYPE svg PUBLIC "-//W3C//DTD SVG 20010904//EN"
 "http://www.w3.org/TR/2001/REC-SVG-20010904/DTD/svg10.dtd">
<svg version="1.0" xmlns="http://www.w3.org/2000/svg"
 width="700.000000pt" height="700.000000pt" viewBox="0 0 700.000000 700.000000"
 preserveAspectRatio="xMidYMid meet">
<metadata>
Created by potrace 1.11, written by Peter Selinger 2001-2013
</metadata>
<g transform="translate(0.000000,700.000000) scale(0.100000,-0.100000)"
fill="#000000" stroke="none">
<path d="M3350 6994 c-169 -11 -321 -28 -447 -50 -1082 -185 -2018 -878 -2518
-1865 -189 -372 -294 -716 -357 -1169 -20 -150 -17 -701 5 -860 95 -665 340
-1237 748 -1745 530 -661 1293 -1110 2129 -1254 208 -35 348 -46 605 -46 492
1 924 90 1374 282 765 327 1412 951 1773 1711 168 353 267 703 320 1132 20
160 16 622 -6 785 -93 680 -331 1250 -740 1765 -118 149 -391 425 -531 536
-547 436 -1182 698 -1850 763 -114 11 -423 20 -505 15z m382 -345 c113 -24
214 -90 262 -173 101 -172 55 -439 -148 -871 -103 -217 -286 -534 -666 -1155
-304 -495 -295 -479 -283 -490 4 -4 85 -44 178 -88 94 -44 395 -190 670 -325
275 -135 506 -247 514 -249 15 -3 116 175 354 622 409 770 630 1315 666 1641
11 95 1 193 -22 230 -40 64 -27 140 31 189 34 29 42 31 94 28 65 -5 93 -25
133 -93 71 -121 74 -361 9 -615 -111 -429 -373 -1003 -872 -1914 l-121 -220
441 -224 c526 -266 577 -301 665 -462 55 -99 68 -153 67 -280 0 -154 -31 -259
-130 -451 -264 -509 -1025 -1096 -1719 -1327 -186 -63 -268 -77 -435 -77 -164
0 -218 12 -306 71 -140 93 -184 264 -130 502 75 326 262 686 871 1677 142 231
260 427 262 435 2 11 -119 75 -444 234 -545 267 -932 451 -937 445 -11 -13
-314 -575 -434 -804 -371 -712 -582 -1273 -582 -1549 0 -61 3 -77 38 -173 25
-69 18 -107 -28 -153 -45 -45 -95 -55 -154 -32 -104 41 -161 232 -136 462 44
426 330 1095 938 2195 l99 180 -435 218 c-240 120 -457 234 -483 253 -70 51
-160 152 -196 220 -77 144 -83 331 -18 529 35 110 137 293 229 416 355 471
1063 955 1656 1131 174 52 385 71 502 47z"/>
<path d="M3429 6355 c-446 -89 -1120 -493 -1486 -891 -252 -274 -381 -541
-352 -725 11 -66 59 -141 123 -189 42 -32 886 -460 906 -460 4 0 17 19 30 43
13 23 130 216 261 428 561 913 763 1296 829 1572 47 195 18 238 -157 236 -48
0 -118 -7 -154 -14z"/>
<path d="M4354 2863 c-15 -27 -147 -244 -294 -483 -548 -894 -715 -1211 -791
-1505 -19 -69 -25 -169 -13 -200 13 -33 65 -49 159 -48 177 1 393 67 680 208
667 328 1204 841 1309 1251 37 143 14 238 -79 329 -56 55 -94 76 -493 278
-238 119 -436 217 -441 217 -5 0 -21 -21 -37 -47z"/>
</g>
</svg>
